<?xml version="1.0" encoding="UTF-8"?>
<svg width="21px" height="24px" viewBox="0 0 21 24" version="1.1" xmlns="http://www.w3.org/2000/svg" xmlns:xlink="http://www.w3.org/1999/xlink">
    <!-- Generator: Sketch 52.5 (67469) - http://www.bohemiancoding.com/sketch -->
    <title>dustbin</title>
    <desc>Created with Sketch.</desc>
    <g id="Page-1" stroke="none" stroke-width="1" fill="none" fill-rule="evenodd">
        <g id="01-Page-Builder" transform="translate(-1550.000000, -238.000000)" fill="#323B52">
            <g id="Table" transform="translate(269.000000, 113.000000)">
                <g id="row-1" transform="translate(0.000000, 107.000000)">
                    <g id="Actions-published" transform="translate(1041.000000, 9.000000)">
                        <g id="dustbin" transform="translate(240.000000, 9.000000)">
                            <path d="M17.4638795,7.29994521 C17.4638795,7.09295342 17.6317479,6.92501918 17.8387397,6.92501918 C18.0457315,6.92501918 18.2136986,7.09370959 18.2136986,7.29994521 L18.2136986,21.6827178 C18.2136986,22.3176986 17.952789,22.895737 17.534137,23.3151452 C17.1155178,23.7337973 16.5366904,23.994674 15.9017096,23.994674 L4.27929863,23.994674 C3.64428493,23.994674 3.06473425,23.7337973 2.64683836,23.3151452 C2.2281863,22.8964932 1.96730959,22.3185534 1.96730959,21.6827178 L1.96730959,7.29994521 C1.96730959,7.09295342 2.13524384,6.92501918 2.34220274,6.92501918 C2.54919452,6.92501918 2.71712877,7.09370959 2.71712877,7.29994521 L2.71712877,21.6827178 C2.71712877,22.1107726 2.89367671,22.5020712 3.17641644,22.7847781 C3.45915616,23.0675507 3.85048767,23.2448219 4.27850959,23.2448219 L15.9009863,23.2448219 C16.3290082,23.2448219 16.7194849,23.0674849 17.0022904,22.7847781 C17.2858192,22.5012493 17.4623014,22.1107068 17.4623014,21.683474 L17.4623014,7.29994521 L17.4638795,7.29994521 Z" id="Path"></path>
                            <path d="M7.29422466,20.7141699 C7.29422466,20.9211616 7.12629041,21.089063 6.91929863,21.089063 C6.71230685,21.089063 6.5443726,20.9211616 6.5443726,20.7141699 L6.5443726,7.3968 C6.5443726,7.18980822 6.71230685,7.02187397 6.91929863,7.02187397 C7.12629041,7.02187397 7.29422466,7.18980822 7.29422466,7.3968 L7.29422466,20.7141699 Z" id="Path"></path>
                            <path d="M10.4654137,20.7141699 C10.4654137,20.9211616 10.2975123,21.089063 10.0905205,21.089063 C9.88352877,21.089063 9.71559452,20.9211616 9.71559452,20.7141699 L9.71559452,7.3968 C9.71559452,7.18980822 9.88352877,7.02187397 10.0905205,7.02187397 C10.2975123,7.02187397 10.4654137,7.18980822 10.4654137,7.3968 L10.4654137,20.7141699 Z" id="Path"></path>
                            <path d="M13.6373589,20.7141699 C13.6373589,20.9211616 13.4694904,21.089063 13.2624986,21.089063 C13.055474,21.089063 12.8875726,20.9211616 12.8875726,20.7141699 L12.8875726,7.3968 C12.8875726,7.18980822 13.055474,7.02187397 13.2624986,7.02187397 C13.4694904,7.02187397 13.6373589,7.18980822 13.6373589,7.3968 L13.6373589,20.7141699 Z" id="Path"></path>
                            <path d="M7.07552877,2.31198904 C7.07552877,2.51898082 6.90759452,2.68691507 6.70060274,2.68691507 C6.49364384,2.68691507 6.32570959,2.51898082 6.32570959,2.31198904 C6.32570959,1.67539726 6.58579726,1.09742466 7.00448219,0.678772603 C7.42313425,0.260087671 8.00113973,0 8.63769863,0 L11.5433096,0 C12.1791123,0 12.7571178,0.260876712 13.1757041,0.679528767 C13.5943562,1.09818082 13.8552658,1.67773151 13.8552658,2.31198904 C13.8552658,2.51898082 13.6873644,2.68691507 13.4803726,2.68691507 C13.2733808,2.68691507 13.1054795,2.51898082 13.1054795,2.31198904 C13.1054795,1.88396712 12.9289644,1.49263562 12.6461918,1.20989589 C12.3633863,0.927123288 11.9721205,0.749819178 11.5440986,0.749819178 L8.63852055,0.749819178 C8.20970959,0.749819178 7.81916712,0.926334247 7.53563836,1.20910685 C7.25204384,1.49263562 7.07552877,1.88317808 7.07552877,2.31198904 Z" id="Path"></path>
                            <path d="M1.37365479,3.38985205 L18.8072877,3.38985205 C19.1751452,3.38985205 19.5110137,3.54059178 19.7547288,3.78430685 L19.756274,3.78588493 C19.999989,4.02956712 20.1507288,4.36543562 20.1507288,4.73332603 L20.1507288,5.70187397 C20.1507288,5.90883288 19.9827945,6.07676712 19.7758027,6.07676712 L19.7656438,6.07676712 L0.405139726,6.07676712 C0.198147945,6.07676712 0.0302136986,5.90883288 0.0302136986,5.70187397 L0.0302136986,5.69250411 L0.0302136986,4.73332603 C0.0302136986,4.36622466 0.180953425,4.02956712 0.424668493,3.78588493 L0.426246575,3.78430685 C0.669928767,3.54062466 1.00655342,3.38985205 1.37365479,3.38985205 Z M18.8073205,4.13970411 L1.37365479,4.13970411 C1.21042192,4.13970411 1.0612274,4.20611507 0.95500274,4.31309589 L0.953424658,4.31467397 C0.846410959,4.42086575 0.780032877,4.56930411 0.780032877,4.73332603 L0.780032877,5.32694795 L19.4001205,5.32694795 L19.4001205,4.73332603 C19.4001205,4.57009315 19.3337096,4.42089863 19.2267616,4.31467397 L19.2251507,4.31309589 C19.1189918,4.20611507 18.9705534,4.13970411 18.8073205,4.13970411 Z" id="Shape"></path>
                        </g>
                    </g>
                </g>
            </g>
        </g>
    </g>
</svg>