<?xml version="1.0" encoding="UTF-8"?>
<svg width="19px" height="20px" viewBox="0 0 19 20" version="1.1" xmlns="http://www.w3.org/2000/svg" xmlns:xlink="http://www.w3.org/1999/xlink">
    <!-- Generator: Sketch 52.5 (67469) - http://www.bohemiancoding.com/sketch -->
    <title>pencil</title>
    <desc>Created with Sketch.</desc>
    <g id="Page-1" stroke="none" stroke-width="1" fill="none" fill-rule="evenodd">
        <g id="01-Page-Builder" transform="translate(-1322.000000, -239.000000)" fill="#323B52">
            <g id="Table" transform="translate(269.000000, 113.000000)">
                <g id="row-1" transform="translate(0.000000, 107.000000)">
                    <g id="Actions-published" transform="translate(1041.000000, 9.000000)">
                        <g id="pencil" transform="translate(21.000000, 21.000000) rotate(42.000000) translate(-21.000000, -21.000000) translate(17.000000, 9.000000)">
                            <path d="M0.0243809524,19.275581 C0.0243809524,19.3828571 0.0585142857,19.4852571 0.121904762,19.5681524 L3.26217143,23.6836571 C3.35481905,23.8055619 3.49622857,23.8738286 3.64739048,23.8738286 C3.79855238,23.8738286 3.9399619,23.8055619 4.03260952,23.6836571 L7.17287619,19.5681524 C7.23626667,19.4852571 7.2704,19.3828571 7.2704,19.275581 L7.2704,6.05622857 C7.2704,5.7880381 7.05584762,5.57348571 6.78765714,5.57348571 C6.51946667,5.57348571 6.30491429,5.7880381 6.30491429,6.05622857 L6.30491429,19.1146667 L3.64739048,22.5962667 L0.989866667,19.1146667 L0.989866667,6.08060952 C0.989866667,5.81241905 0.775314286,5.59786667 0.50712381,5.59786667 C0.238933333,5.59786667 0.0243809524,5.81241905 0.0243809524,6.08060952 L0.0243809524,19.275581 Z" id="Path"></path>
                            <path d="M3.16464762,6.08060952 L3.16464762,18.2223238 C3.16464762,18.4905143 3.3792,18.7050667 3.64739048,18.7050667 C3.91558095,18.7050667 4.13013333,18.4905143 4.13013333,18.2223238 L4.13013333,6.08060952 C4.13013333,5.81241905 3.91558095,5.59786667 3.64739048,5.59786667 C3.3792,5.59786667 3.16464762,5.81241905 3.16464762,6.08060952 Z" id="Path"></path>
                            <path d="M0.0243809524,1.8968381 L0.0243809524,4.05699048 C0.0243809524,4.32518095 0.238933333,4.53973333 0.50712381,4.53973333 L6.78278095,4.53973333 C7.05097143,4.53973333 7.26552381,4.32518095 7.26552381,4.05699048 L7.26552381,1.8968381 C7.26552381,0.853333333 6.41706667,0 5.36868571,0 L1.92121905,0 C0.877714286,0 0.0243809524,0.848457143 0.0243809524,1.8968381 Z M6.30491429,1.8968381 L6.30491429,3.57424762 L0.989866667,3.57424762 L0.989866667,1.8968381 C0.989866667,1.3848381 1.40921905,0.965485714 1.92121905,0.965485714 L5.36868571,0.965485714 C5.8855619,0.965485714 6.30491429,1.3799619 6.30491429,1.8968381 Z" id="Shape" fill-rule="nonzero"></path>
                        </g>
                    </g>
                </g>
            </g>
        </g>
    </g>
</svg>